<svg width="79" height="78" viewBox="0 0 79 78" fill="none" xmlns="http://www.w3.org/2000/svg">
<path d="M52.9878 0.586426H26.0122C12.1782 0.586426 0.96344 11.666 0.96344 25.3334V51.984C0.96344 65.6514 12.1782 76.731 26.0122 76.731H52.9878C66.8219 76.731 78.0366 65.6514 78.0366 51.984V25.3334C78.0366 11.666 66.8219 0.586426 52.9878 0.586426Z" stroke="white"/>
<path fill-rule="evenodd" clip-rule="evenodd" d="M54.5698 53.5467C46.2748 61.7427 32.8236 61.7427 24.5276 53.5467C16.2307 45.3516 16.2307 32.0625 24.5276 23.8665C32.8226 15.6695 46.2748 15.6695 54.5698 23.8665C62.8657 32.0615 62.8657 45.3516 54.5698 53.5467Z" stroke="white" stroke-width="1.575" stroke-linecap="round" stroke-linejoin="round"/>
<path fill-rule="evenodd" clip-rule="evenodd" d="M45.9858 48.882C45.1425 49.7266 44.1384 50.3982 43.0313 50.8578C41.9243 51.3175 40.7361 51.5563 39.5352 51.5604C38.3343 51.5645 37.1445 51.3338 36.0343 50.8817C34.924 50.4296 33.9153 49.7649 33.0661 48.926C32.217 48.0871 31.5442 47.0905 31.0866 45.9936C30.6289 44.8967 30.3954 43.7212 30.3996 42.5348C30.4037 41.3484 30.6454 40.1746 31.1107 39.0808C31.576 37.9871 32.2557 36.9951 33.1107 36.162C34.8221 34.4944 37.1315 33.5631 39.5352 33.5713C41.9389 33.5795 44.2418 34.5265 45.9415 36.2057C47.6412 37.8849 48.5997 40.1601 48.608 42.5348C48.6163 44.9096 47.6737 47.1912 45.9858 48.882Z" stroke="white" stroke-width="1.575" stroke-linecap="round" stroke-linejoin="round"/>
<path d="M39.5482 39.5249V45.5213" stroke="white" stroke-width="1.575" stroke-linecap="round" stroke-linejoin="round"/>
<path fill-rule="evenodd" clip-rule="evenodd" d="M41.6947 27.6902C41.1236 28.2441 40.3543 28.5529 39.554 28.5493C38.7537 28.5456 37.9872 28.2299 37.4213 27.6709C36.8554 27.1118 36.5359 26.3545 36.5322 25.5639C36.5285 24.7732 36.841 24.0131 37.4017 23.4489C37.9728 22.895 38.7422 22.5863 39.5425 22.5899C40.3428 22.5935 41.1092 22.9092 41.6751 23.4683C42.241 24.0274 42.5606 24.7846 42.5642 25.5753C42.5679 26.3659 42.2554 27.126 41.6947 27.6902V27.6902Z" stroke="white" stroke-width="1.575" stroke-linecap="round" stroke-linejoin="round"/>
</svg>
